<svg xmlns="http://www.w3.org/2000/svg" xmlns:xlink="http://www.w3.org/1999/xlink" width="500" zoomAndPan="magnify" viewBox="0 0 375 149.999998" height="200" preserveAspectRatio="xMidYMid meet" version="1.0"><defs><filter x="0%" y="0%" width="100%" height="100%" id="ef87affd62"><feColorMatrix values="0 0 0 0 1 0 0 0 0 1 0 0 0 0 1 0 0 0 1 0" color-interpolation-filters="sRGB"/></filter><g/><clipPath id="211b7d831a"><path d="M 0 0 L 374.015625 0 L 374.015625 150 L 0 150 Z M 0 0 " clip-rule="nonzero"/></clipPath><linearGradient x1="-146.360467" gradientTransform="matrix(0.61063, 0, 0, 0.611619, 89.372151, 60.228925)" y1="27" x2="466.148014" gradientUnits="userSpaceOnUse" y2="27" id="4947de9a4a"><stop stop-opacity="1" stop-color="rgb(100%, 19.219971%, 19.219971%)" offset="0"/><stop stop-opacity="1" stop-color="rgb(100%, 19.219971%, 19.219971%)" offset="0.25"/><stop stop-opacity="1" stop-color="rgb(100%, 19.258118%, 19.230652%)" offset="0.265625"/><stop stop-opacity="1" stop-color="rgb(100%, 19.612122%, 19.334412%)" offset="0.269531"/><stop stop-opacity="1" stop-color="rgb(100%, 19.926453%, 19.425964%)" offset="0.273438"/><stop stop-opacity="1" stop-color="rgb(100%, 20.240784%, 19.517517%)" offset="0.277344"/><stop stop-opacity="1" stop-color="rgb(100%, 20.555115%, 19.60907%)" offset="0.28125"/><stop stop-opacity="1" stop-color="rgb(100%, 20.869446%, 19.700623%)" offset="0.285156"/><stop stop-opacity="1" stop-color="rgb(100%, 21.183777%, 19.792175%)" offset="0.289062"/><stop stop-opacity="1" stop-color="rgb(100%, 21.496582%, 19.883728%)" offset="0.292969"/><stop stop-opacity="1" stop-color="rgb(100%, 21.810913%, 19.975281%)" offset="0.296875"/><stop stop-opacity="1" stop-color="rgb(100%, 22.125244%, 20.066833%)" offset="0.300781"/><stop stop-opacity="1" stop-color="rgb(100%, 22.439575%, 20.158386%)" offset="0.304688"/><stop stop-opacity="1" stop-color="rgb(100%, 22.753906%, 20.249939%)" offset="0.308594"/><stop stop-opacity="1" stop-color="rgb(100%, 23.068237%, 20.341492%)" offset="0.3125"/><stop stop-opacity="1" stop-color="rgb(100%, 23.382568%, 20.433044%)" offset="0.316406"/><stop stop-opacity="1" stop-color="rgb(100%, 23.696899%, 20.524597%)" offset="0.320312"/><stop stop-opacity="1" stop-color="rgb(100%, 24.01123%, 20.61615%)" offset="0.324219"/><stop stop-opacity="1" stop-color="rgb(100%, 24.325562%, 20.709229%)" offset="0.328125"/><stop stop-opacity="1" stop-color="rgb(100%, 24.638367%, 20.800781%)" offset="0.332031"/><stop stop-opacity="1" stop-color="rgb(100%, 24.952698%, 20.892334%)" offset="0.335938"/><stop stop-opacity="1" stop-color="rgb(100%, 25.267029%, 20.983887%)" offset="0.339844"/><stop stop-opacity="1" stop-color="rgb(100%, 25.58136%, 21.075439%)" offset="0.34375"/><stop stop-opacity="1" stop-color="rgb(100%, 25.895691%, 21.166992%)" offset="0.347656"/><stop stop-opacity="1" stop-color="rgb(100%, 26.210022%, 21.258545%)" offset="0.351562"/><stop stop-opacity="1" stop-color="rgb(100%, 26.524353%, 21.350098%)" offset="0.355469"/><stop stop-opacity="1" stop-color="rgb(100%, 26.838684%, 21.44165%)" offset="0.359375"/><stop stop-opacity="1" stop-color="rgb(100%, 27.151489%, 21.533203%)" offset="0.363281"/><stop stop-opacity="1" stop-color="rgb(100%, 27.46582%, 21.624756%)" offset="0.367188"/><stop stop-opacity="1" stop-color="rgb(100%, 27.780151%, 21.716309%)" offset="0.371094"/><stop stop-opacity="1" stop-color="rgb(100%, 28.094482%, 21.807861%)" offset="0.375"/><stop stop-opacity="1" stop-color="rgb(100%, 28.408813%, 21.899414%)" offset="0.378906"/><stop stop-opacity="1" stop-color="rgb(100%, 28.723145%, 21.990967%)" offset="0.382812"/><stop stop-opacity="1" stop-color="rgb(100%, 29.037476%, 22.08252%)" offset="0.386719"/><stop stop-opacity="1" stop-color="rgb(100%, 29.351807%, 22.175598%)" offset="0.390625"/><stop stop-opacity="1" stop-color="rgb(100%, 29.664612%, 22.267151%)" offset="0.394531"/><stop stop-opacity="1" stop-color="rgb(100%, 29.978943%, 22.358704%)" offset="0.398438"/><stop stop-opacity="1" stop-color="rgb(100%, 30.293274%, 22.450256%)" offset="0.402344"/><stop stop-opacity="1" stop-color="rgb(100%, 30.607605%, 22.541809%)" offset="0.40625"/><stop stop-opacity="1" stop-color="rgb(100%, 30.921936%, 22.633362%)" offset="0.410156"/><stop stop-opacity="1" stop-color="rgb(100%, 31.236267%, 22.724915%)" offset="0.414063"/><stop stop-opacity="1" stop-color="rgb(100%, 31.550598%, 22.816467%)" offset="0.417969"/><stop stop-opacity="1" stop-color="rgb(100%, 31.864929%, 22.90802%)" offset="0.421875"/><stop stop-opacity="1" stop-color="rgb(100%, 32.177734%, 22.999573%)" offset="0.425781"/><stop stop-opacity="1" stop-color="rgb(100%, 32.492065%, 23.091125%)" offset="0.429688"/><stop stop-opacity="1" stop-color="rgb(100%, 32.806396%, 23.182678%)" offset="0.433594"/><stop stop-opacity="1" stop-color="rgb(100%, 33.120728%, 23.274231%)" offset="0.4375"/><stop stop-opacity="1" stop-color="rgb(100%, 33.435059%, 23.365784%)" offset="0.441406"/><stop stop-opacity="1" stop-color="rgb(100%, 33.74939%, 23.457336%)" offset="0.445313"/><stop stop-opacity="1" stop-color="rgb(100%, 34.063721%, 23.548889%)" offset="0.449219"/><stop stop-opacity="1" stop-color="rgb(100%, 34.378052%, 23.640442%)" offset="0.453125"/><stop stop-opacity="1" stop-color="rgb(100%, 34.690857%, 23.731995%)" offset="0.457031"/><stop stop-opacity="1" stop-color="rgb(100%, 35.005188%, 23.825073%)" offset="0.460938"/><stop stop-opacity="1" stop-color="rgb(100%, 35.319519%, 23.916626%)" offset="0.464844"/><stop stop-opacity="1" stop-color="rgb(100%, 35.63385%, 24.008179%)" offset="0.46875"/><stop stop-opacity="1" stop-color="rgb(100%, 35.948181%, 24.099731%)" offset="0.472656"/><stop stop-opacity="1" stop-color="rgb(100%, 36.262512%, 24.191284%)" offset="0.476563"/><stop stop-opacity="1" stop-color="rgb(100%, 36.576843%, 24.282837%)" offset="0.480469"/><stop stop-opacity="1" stop-color="rgb(100%, 36.891174%, 24.37439%)" offset="0.484375"/><stop stop-opacity="1" stop-color="rgb(100%, 37.205505%, 24.465942%)" offset="0.488281"/><stop stop-opacity="1" stop-color="rgb(100%, 37.519836%, 24.557495%)" offset="0.492188"/><stop stop-opacity="1" stop-color="rgb(100%, 37.832642%, 24.649048%)" offset="0.496094"/><stop stop-opacity="1" stop-color="rgb(100%, 38.146973%, 24.740601%)" offset="0.5"/><stop stop-opacity="1" stop-color="rgb(100%, 38.461304%, 24.832153%)" offset="0.503906"/><stop stop-opacity="1" stop-color="rgb(100%, 38.775635%, 24.923706%)" offset="0.507812"/><stop stop-opacity="1" stop-color="rgb(100%, 39.089966%, 25.015259%)" offset="0.511719"/><stop stop-opacity="1" stop-color="rgb(100%, 39.404297%, 25.106812%)" offset="0.515625"/><stop stop-opacity="1" stop-color="rgb(100%, 39.718628%, 25.198364%)" offset="0.519531"/><stop stop-opacity="1" stop-color="rgb(100%, 40.032959%, 25.289917%)" offset="0.523438"/><stop stop-opacity="1" stop-color="rgb(100%, 40.345764%, 25.38147%)" offset="0.527344"/><stop stop-opacity="1" stop-color="rgb(100%, 40.660095%, 25.474548%)" offset="0.53125"/><stop stop-opacity="1" stop-color="rgb(100%, 40.974426%, 25.566101%)" offset="0.535156"/><stop stop-opacity="1" stop-color="rgb(100%, 41.288757%, 25.657654%)" offset="0.539063"/><stop stop-opacity="1" stop-color="rgb(100%, 41.603088%, 25.749207%)" offset="0.542969"/><stop stop-opacity="1" stop-color="rgb(100%, 41.917419%, 25.840759%)" offset="0.546875"/><stop stop-opacity="1" stop-color="rgb(100%, 42.23175%, 25.932312%)" offset="0.550781"/><stop stop-opacity="1" stop-color="rgb(100%, 42.546082%, 26.023865%)" offset="0.554688"/><stop stop-opacity="1" stop-color="rgb(100%, 42.858887%, 26.115417%)" offset="0.558594"/><stop stop-opacity="1" stop-color="rgb(100%, 43.173218%, 26.20697%)" offset="0.5625"/><stop stop-opacity="1" stop-color="rgb(100%, 43.487549%, 26.298523%)" offset="0.566406"/><stop stop-opacity="1" stop-color="rgb(100%, 43.80188%, 26.390076%)" offset="0.570313"/><stop stop-opacity="1" stop-color="rgb(100%, 44.116211%, 26.481628%)" offset="0.574219"/><stop stop-opacity="1" stop-color="rgb(100%, 44.430542%, 26.573181%)" offset="0.578125"/><stop stop-opacity="1" stop-color="rgb(100%, 44.744873%, 26.664734%)" offset="0.582031"/><stop stop-opacity="1" stop-color="rgb(100%, 45.059204%, 26.756287%)" offset="0.585938"/><stop stop-opacity="1" stop-color="rgb(100%, 45.372009%, 26.847839%)" offset="0.589844"/><stop stop-opacity="1" stop-color="rgb(100%, 45.68634%, 26.940918%)" offset="0.59375"/><stop stop-opacity="1" stop-color="rgb(100%, 46.000671%, 27.032471%)" offset="0.597656"/><stop stop-opacity="1" stop-color="rgb(100%, 46.315002%, 27.124023%)" offset="0.601563"/><stop stop-opacity="1" stop-color="rgb(100%, 46.629333%, 27.215576%)" offset="0.605469"/><stop stop-opacity="1" stop-color="rgb(100%, 46.943665%, 27.307129%)" offset="0.609375"/><stop stop-opacity="1" stop-color="rgb(100%, 47.257996%, 27.398682%)" offset="0.613281"/><stop stop-opacity="1" stop-color="rgb(100%, 47.572327%, 27.490234%)" offset="0.617188"/><stop stop-opacity="1" stop-color="rgb(100%, 47.885132%, 27.581787%)" offset="0.621094"/><stop stop-opacity="1" stop-color="rgb(100%, 48.199463%, 27.67334%)" offset="0.625"/><stop stop-opacity="1" stop-color="rgb(100%, 48.513794%, 27.764893%)" offset="0.628906"/><stop stop-opacity="1" stop-color="rgb(100%, 48.828125%, 27.856445%)" offset="0.632813"/><stop stop-opacity="1" stop-color="rgb(100%, 49.142456%, 27.947998%)" offset="0.636719"/><stop stop-opacity="1" stop-color="rgb(100%, 49.456787%, 28.039551%)" offset="0.640625"/><stop stop-opacity="1" stop-color="rgb(100%, 49.771118%, 28.131104%)" offset="0.644531"/><stop stop-opacity="1" stop-color="rgb(100%, 50.085449%, 28.222656%)" offset="0.648438"/><stop stop-opacity="1" stop-color="rgb(100%, 50.39978%, 28.314209%)" offset="0.652344"/><stop stop-opacity="1" stop-color="rgb(100%, 50.714111%, 28.405762%)" offset="0.65625"/><stop stop-opacity="1" stop-color="rgb(100%, 51.026917%, 28.497314%)" offset="0.660156"/><stop stop-opacity="1" stop-color="rgb(100%, 51.341248%, 28.590393%)" offset="0.664062"/><stop stop-opacity="1" stop-color="rgb(100%, 51.655579%, 28.681946%)" offset="0.667969"/><stop stop-opacity="1" stop-color="rgb(100%, 51.96991%, 28.773499%)" offset="0.671875"/><stop stop-opacity="1" stop-color="rgb(100%, 52.284241%, 28.865051%)" offset="0.675781"/><stop stop-opacity="1" stop-color="rgb(100%, 52.598572%, 28.956604%)" offset="0.679688"/><stop stop-opacity="1" stop-color="rgb(100%, 52.912903%, 29.048157%)" offset="0.683594"/><stop stop-opacity="1" stop-color="rgb(100%, 53.227234%, 29.139709%)" offset="0.6875"/><stop stop-opacity="1" stop-color="rgb(100%, 53.540039%, 29.231262%)" offset="0.691406"/><stop stop-opacity="1" stop-color="rgb(100%, 53.85437%, 29.322815%)" offset="0.695312"/><stop stop-opacity="1" stop-color="rgb(100%, 54.168701%, 29.414368%)" offset="0.699219"/><stop stop-opacity="1" stop-color="rgb(100%, 54.483032%, 29.50592%)" offset="0.703125"/><stop stop-opacity="1" stop-color="rgb(100%, 54.797363%, 29.597473%)" offset="0.707031"/><stop stop-opacity="1" stop-color="rgb(100%, 55.111694%, 29.689026%)" offset="0.710938"/><stop stop-opacity="1" stop-color="rgb(100%, 55.426025%, 29.780579%)" offset="0.714844"/><stop stop-opacity="1" stop-color="rgb(100%, 55.740356%, 29.872131%)" offset="0.71875"/><stop stop-opacity="1" stop-color="rgb(100%, 56.053162%, 29.963684%)" offset="0.722656"/><stop stop-opacity="1" stop-color="rgb(100%, 56.367493%, 30.055237%)" offset="0.726562"/><stop stop-opacity="1" stop-color="rgb(100%, 56.613159%, 30.126953%)" offset="0.730469"/><stop stop-opacity="1" stop-color="rgb(100%, 56.858826%, 30.198669%)" offset="0.734375"/><stop stop-opacity="1" stop-color="rgb(100%, 56.858826%, 30.198669%)" offset="0.75"/><stop stop-opacity="1" stop-color="rgb(100%, 56.858826%, 30.198669%)" offset="1"/></linearGradient><clipPath id="d061572baf"><rect x="0" width="375" y="0" height="150"/></clipPath><clipPath id="36094c0c6f"><rect x="0" width="375" y="0" height="150"/></clipPath><clipPath id="6ac84f54e6"><rect x="0" width="375" y="0" height="150"/></clipPath><mask id="d4ae326a68"><g filter="url(#ef87affd62)"><g transform="matrix(1, 0, 0, 1, 0, -0.000000000000007527)"><g clip-path="url(#6ac84f54e6)"><g transform="matrix(1, 0, 0, 1, 0, -0.000000000000007527)"><g clip-path="url(#36094c0c6f)"><g fill="#000000" fill-opacity="1"><g transform="translate(98.999495, 90.801102)"><g><path d="M 15.546875 -22.15625 C 15.378906 -22.050781 15.1875 -21.972656 14.96875 -21.921875 C 14.757812 -21.867188 14.550781 -21.8125 14.34375 -21.75 C 13.976562 -21.71875 13.59375 -21.691406 13.1875 -21.671875 C 12.789062 -21.660156 12.410156 -21.601562 12.046875 -21.5 C 11.242188 -21.269531 10.5625 -20.84375 10 -20.21875 C 9.4375 -19.601562 9.003906 -18.914062 8.703125 -18.15625 C 8.128906 -16.613281 7.769531 -14.941406 7.625 -13.140625 C 7.476562 -11.347656 7.425781 -9.535156 7.46875 -7.703125 C 7.519531 -5.867188 7.53125 -4.132812 7.5 -2.5 L 7.5 -1.75 C 7.5 -1.113281 7.253906 -0.671875 6.765625 -0.421875 C 6.285156 -0.171875 5.703125 -0.0351562 5.015625 -0.015625 C 4.335938 -0.00390625 3.671875 -0.03125 3.015625 -0.09375 C 2.367188 -0.164062 1.863281 -0.21875 1.5 -0.25 C 1.164062 -0.25 0.914062 -0.316406 0.75 -0.453125 C 0.445312 -0.648438 0.253906 -1.03125 0.171875 -1.59375 C 0.0859375 -2.164062 0.046875 -2.800781 0.046875 -3.5 C 0.046875 -4.195312 0.0703125 -4.863281 0.125 -5.5 C 0.175781 -6.132812 0.203125 -6.601562 0.203125 -6.90625 C 0.265625 -8.070312 0.328125 -9.238281 0.390625 -10.40625 C 0.460938 -11.570312 0.5 -12.738281 0.5 -13.90625 C 0.5 -16.164062 0.5 -18.4375 0.5 -20.71875 C 0.5 -23.007812 0.5 -25.300781 0.5 -27.59375 C 0.5 -28.164062 0.628906 -28.523438 0.890625 -28.671875 C 1.160156 -28.828125 1.492188 -28.882812 1.890625 -28.84375 C 2.296875 -28.8125 2.695312 -28.8125 3.09375 -28.84375 C 3.800781 -28.945312 4.488281 -29 5.15625 -29 C 6.519531 -29 7.566406 -28.566406 8.296875 -27.703125 C 8.566406 -27.398438 8.898438 -27.25 9.296875 -27.25 C 9.429688 -27.25 9.550781 -27.265625 9.65625 -27.296875 C 10.082031 -27.328125 10.59375 -27.476562 11.1875 -27.75 C 11.789062 -28.019531 12.414062 -28.28125 13.0625 -28.53125 C 13.71875 -28.78125 14.328125 -28.945312 14.890625 -29.03125 C 15.460938 -29.113281 15.929688 -29.007812 16.296875 -28.71875 C 16.660156 -28.4375 16.84375 -27.863281 16.84375 -27 C 16.84375 -26.5625 16.832031 -26.117188 16.8125 -25.671875 C 16.800781 -25.222656 16.78125 -24.78125 16.75 -24.34375 C 16.71875 -24.113281 16.679688 -23.863281 16.640625 -23.59375 C 16.609375 -23.332031 16.507812 -23.101562 16.34375 -22.90625 C 16.144531 -22.53125 15.878906 -22.28125 15.546875 -22.15625 Z M 15.546875 -22.15625 "/></g></g></g><g fill="#000000" fill-opacity="1"><g transform="translate(115.948498, 90.801102)"><g><path d="M 28.046875 -12.703125 C 27.648438 -12.367188 27.054688 -12.140625 26.265625 -12.015625 C 25.484375 -11.898438 24.648438 -11.84375 23.765625 -11.84375 C 22.890625 -11.84375 22.066406 -11.859375 21.296875 -11.890625 C 20.535156 -11.929688 19.953125 -11.953125 19.546875 -11.953125 C 17.816406 -11.921875 16.097656 -11.894531 14.390625 -11.875 C 12.691406 -11.851562 10.976562 -11.84375 9.25 -11.84375 C 8.71875 -11.84375 8.375 -11.675781 8.21875 -11.34375 C 8.070312 -11.007812 8.054688 -10.632812 8.171875 -10.21875 C 8.285156 -9.800781 8.445312 -9.445312 8.65625 -9.15625 C 9.351562 -8.25 10.222656 -7.519531 11.265625 -6.96875 C 12.316406 -6.425781 13.410156 -6.085938 14.546875 -5.953125 C 15.816406 -5.816406 16.875 -5.988281 17.71875 -6.46875 C 18.570312 -6.957031 19.53125 -7.46875 20.59375 -8 C 21.09375 -8.269531 21.4375 -8.4375 21.625 -8.5 C 21.8125 -8.5625 22.117188 -8.410156 22.546875 -8.046875 C 23.015625 -7.679688 23.457031 -7.179688 23.875 -6.546875 C 24.289062 -5.910156 24.695312 -5.363281 25.09375 -4.90625 C 25.53125 -4.332031 25.515625 -3.796875 25.046875 -3.296875 C 24.578125 -2.796875 23.859375 -2.335938 22.890625 -1.921875 C 21.929688 -1.503906 20.882812 -1.144531 19.75 -0.84375 C 18.613281 -0.550781 17.585938 -0.320312 16.671875 -0.15625 C 15.753906 0.0078125 15.128906 0.09375 14.796875 0.09375 C 12.566406 0.09375 10.507812 -0.34375 8.625 -1.21875 C 6.738281 -2.101562 5.128906 -3.300781 3.796875 -4.8125 C 2.460938 -6.332031 1.460938 -8.039062 0.796875 -9.9375 C 0.128906 -11.84375 -0.128906 -13.835938 0.015625 -15.921875 C 0.171875 -18.003906 0.816406 -20.03125 1.953125 -22 C 2.816406 -23.53125 3.972656 -24.828125 5.421875 -25.890625 C 6.867188 -26.960938 8.46875 -27.753906 10.21875 -28.265625 C 11.96875 -28.785156 13.757812 -29.019531 15.59375 -28.96875 C 17.425781 -28.925781 19.164062 -28.5625 20.8125 -27.875 C 22.46875 -27.1875 23.914062 -26.160156 25.15625 -24.796875 C 25.71875 -24.160156 26.253906 -23.367188 26.765625 -22.421875 C 27.285156 -21.472656 27.726562 -20.445312 28.09375 -19.34375 C 28.46875 -18.25 28.695312 -17.175781 28.78125 -16.125 C 28.863281 -15.070312 28.753906 -14.113281 28.453125 -13.25 C 28.378906 -13.050781 28.242188 -12.867188 28.046875 -12.703125 Z M 20.5 -17.90625 C 20.601562 -18.132812 20.632812 -18.382812 20.59375 -18.65625 C 20.5625 -19.050781 20.378906 -19.429688 20.046875 -19.796875 C 19.148438 -21.066406 17.984375 -22 16.546875 -22.59375 C 15.117188 -23.195312 13.65625 -23.164062 12.15625 -22.5 C 11.488281 -22.195312 10.863281 -21.8125 10.28125 -21.34375 C 9.695312 -20.882812 9.15625 -20.382812 8.65625 -19.84375 C 8.519531 -19.71875 8.382812 -19.570312 8.25 -19.40625 C 8.113281 -19.238281 8.015625 -19.050781 7.953125 -18.84375 C 7.816406 -18.445312 7.878906 -18.082031 8.140625 -17.75 C 8.410156 -17.414062 8.75 -17.25 9.15625 -17.25 L 19.34375 -17.25 C 19.914062 -17.25 20.300781 -17.46875 20.5 -17.90625 Z M 20.5 -17.90625 "/></g></g></g><g fill="#000000" fill-opacity="1"><g transform="translate(144.847285, 90.801102)"><g><path d="M 17.203125 -1.296875 C 15.367188 -0.429688 13.519531 0 11.65625 0 C 10.582031 0 9.40625 -0.148438 8.125 -0.453125 C 6.84375 -0.753906 5.59375 -1.132812 4.375 -1.59375 C 3.15625 -2.0625 2.082031 -2.5625 1.15625 -3.09375 C 0.445312 -3.5 0.078125 -3.910156 0.046875 -4.328125 C 0.015625 -4.742188 0.164062 -5.175781 0.5 -5.625 C 0.832031 -6.070312 1.148438 -6.5625 1.453125 -7.09375 C 1.546875 -7.257812 1.648438 -7.414062 1.765625 -7.5625 C 1.890625 -7.71875 2.019531 -7.847656 2.15625 -7.953125 C 2.519531 -8.210938 2.898438 -8.289062 3.296875 -8.1875 C 3.703125 -8.09375 4.09375 -7.925781 4.46875 -7.6875 C 4.851562 -7.457031 5.195312 -7.257812 5.5 -7.09375 C 6.53125 -6.53125 7.660156 -6.113281 8.890625 -5.84375 C 10.128906 -5.582031 11.332031 -5.484375 12.5 -5.546875 C 13.363281 -5.617188 14.160156 -5.8125 14.890625 -6.125 C 15.628906 -6.4375 16.066406 -6.875 16.203125 -7.4375 C 16.335938 -8.007812 15.9375 -8.679688 15 -9.453125 C 13.769531 -10.421875 12.460938 -11.21875 11.078125 -11.84375 C 9.691406 -12.476562 8.265625 -13.03125 6.796875 -13.5 C 5.429688 -13.9375 4.332031 -14.585938 3.5 -15.453125 C 2.664062 -16.316406 2.070312 -17.28125 1.71875 -18.34375 C 1.375 -19.414062 1.269531 -20.453125 1.40625 -21.453125 C 1.570312 -22.515625 1.988281 -23.53125 2.65625 -24.5 C 3.320312 -25.46875 4.15625 -26.316406 5.15625 -27.046875 C 6.15625 -27.785156 7.238281 -28.285156 8.40625 -28.546875 C 9.070312 -28.710938 9.71875 -28.835938 10.34375 -28.921875 C 10.976562 -29.003906 11.613281 -29.046875 12.25 -29.046875 C 13.445312 -29.046875 14.628906 -28.90625 15.796875 -28.625 C 16.960938 -28.34375 18.082031 -27.953125 19.15625 -27.453125 C 20.113281 -27.015625 20.800781 -26.601562 21.21875 -26.21875 C 21.632812 -25.84375 21.785156 -25.382812 21.671875 -24.84375 C 21.554688 -24.3125 21.164062 -23.5625 20.5 -22.59375 C 20 -21.863281 19.429688 -21.457031 18.796875 -21.375 C 18.160156 -21.289062 17.476562 -21.378906 16.75 -21.640625 C 16.019531 -21.910156 15.28125 -22.238281 14.53125 -22.625 C 13.78125 -23.007812 13.046875 -23.332031 12.328125 -23.59375 C 11.609375 -23.863281 10.945312 -23.945312 10.34375 -23.84375 C 9.75 -23.75 9.21875 -23.332031 8.75 -22.59375 C 8.3125 -21.863281 8.1875 -21.222656 8.375 -20.671875 C 8.5625 -20.117188 8.9375 -19.644531 9.5 -19.25 C 10.0625 -18.851562 10.71875 -18.519531 11.46875 -18.25 C 12.21875 -17.976562 12.941406 -17.742188 13.640625 -17.546875 C 14.347656 -17.347656 14.914062 -17.164062 15.34375 -17 C 16.613281 -16.53125 17.847656 -15.960938 19.046875 -15.296875 C 20.242188 -14.628906 21.210938 -13.695312 21.953125 -12.5 C 22.953125 -10.832031 23.304688 -9.273438 23.015625 -7.828125 C 22.734375 -6.378906 22.0625 -5.09375 21 -3.96875 C 19.9375 -2.851562 18.671875 -1.960938 17.203125 -1.296875 Z M 17.203125 -1.296875 "/></g></g></g><g fill="#000000" fill-opacity="1"><g transform="translate(168.046179, 90.801102)"><g><path d="M 28.046875 -12.703125 C 27.648438 -12.367188 27.054688 -12.140625 26.265625 -12.015625 C 25.484375 -11.898438 24.648438 -11.84375 23.765625 -11.84375 C 22.890625 -11.84375 22.066406 -11.859375 21.296875 -11.890625 C 20.535156 -11.929688 19.953125 -11.953125 19.546875 -11.953125 C 17.816406 -11.921875 16.097656 -11.894531 14.390625 -11.875 C 12.691406 -11.851562 10.976562 -11.84375 9.25 -11.84375 C 8.71875 -11.84375 8.375 -11.675781 8.21875 -11.34375 C 8.070312 -11.007812 8.054688 -10.632812 8.171875 -10.21875 C 8.285156 -9.800781 8.445312 -9.445312 8.65625 -9.15625 C 9.351562 -8.25 10.222656 -7.519531 11.265625 -6.96875 C 12.316406 -6.425781 13.410156 -6.085938 14.546875 -5.953125 C 15.816406 -5.816406 16.875 -5.988281 17.71875 -6.46875 C 18.570312 -6.957031 19.53125 -7.46875 20.59375 -8 C 21.09375 -8.269531 21.4375 -8.4375 21.625 -8.5 C 21.8125 -8.5625 22.117188 -8.410156 22.546875 -8.046875 C 23.015625 -7.679688 23.457031 -7.179688 23.875 -6.546875 C 24.289062 -5.910156 24.695312 -5.363281 25.09375 -4.90625 C 25.53125 -4.332031 25.515625 -3.796875 25.046875 -3.296875 C 24.578125 -2.796875 23.859375 -2.335938 22.890625 -1.921875 C 21.929688 -1.503906 20.882812 -1.144531 19.75 -0.84375 C 18.613281 -0.550781 17.585938 -0.320312 16.671875 -0.15625 C 15.753906 0.0078125 15.128906 0.09375 14.796875 0.09375 C 12.566406 0.09375 10.507812 -0.34375 8.625 -1.21875 C 6.738281 -2.101562 5.128906 -3.300781 3.796875 -4.8125 C 2.460938 -6.332031 1.460938 -8.039062 0.796875 -9.9375 C 0.128906 -11.84375 -0.128906 -13.835938 0.015625 -15.921875 C 0.171875 -18.003906 0.816406 -20.03125 1.953125 -22 C 2.816406 -23.53125 3.972656 -24.828125 5.421875 -25.890625 C 6.867188 -26.960938 8.46875 -27.753906 10.21875 -28.265625 C 11.96875 -28.785156 13.757812 -29.019531 15.59375 -28.96875 C 17.425781 -28.925781 19.164062 -28.5625 20.8125 -27.875 C 22.46875 -27.1875 23.914062 -26.160156 25.15625 -24.796875 C 25.71875 -24.160156 26.253906 -23.367188 26.765625 -22.421875 C 27.285156 -21.472656 27.726562 -20.445312 28.09375 -19.34375 C 28.46875 -18.25 28.695312 -17.175781 28.78125 -16.125 C 28.863281 -15.070312 28.753906 -14.113281 28.453125 -13.25 C 28.378906 -13.050781 28.242188 -12.867188 28.046875 -12.703125 Z M 20.5 -17.90625 C 20.601562 -18.132812 20.632812 -18.382812 20.59375 -18.65625 C 20.5625 -19.050781 20.378906 -19.429688 20.046875 -19.796875 C 19.148438 -21.066406 17.984375 -22 16.546875 -22.59375 C 15.117188 -23.195312 13.65625 -23.164062 12.15625 -22.5 C 11.488281 -22.195312 10.863281 -21.8125 10.28125 -21.34375 C 9.695312 -20.882812 9.15625 -20.382812 8.65625 -19.84375 C 8.519531 -19.71875 8.382812 -19.570312 8.25 -19.40625 C 8.113281 -19.238281 8.015625 -19.050781 7.953125 -18.84375 C 7.816406 -18.445312 7.878906 -18.082031 8.140625 -17.75 C 8.410156 -17.414062 8.75 -17.25 9.15625 -17.25 L 19.34375 -17.25 C 19.914062 -17.25 20.300781 -17.46875 20.5 -17.90625 Z M 20.5 -17.90625 "/></g></g></g><g fill="#000000" fill-opacity="1"><g transform="translate(196.944967, 90.801102)"><g><path d="M 15.546875 -22.15625 C 15.378906 -22.050781 15.1875 -21.972656 14.96875 -21.921875 C 14.757812 -21.867188 14.550781 -21.8125 14.34375 -21.75 C 13.976562 -21.71875 13.59375 -21.691406 13.1875 -21.671875 C 12.789062 -21.660156 12.410156 -21.601562 12.046875 -21.5 C 11.242188 -21.269531 10.5625 -20.84375 10 -20.21875 C 9.4375 -19.601562 9.003906 -18.914062 8.703125 -18.15625 C 8.128906 -16.613281 7.769531 -14.941406 7.625 -13.140625 C 7.476562 -11.347656 7.425781 -9.535156 7.46875 -7.703125 C 7.519531 -5.867188 7.53125 -4.132812 7.5 -2.5 L 7.5 -1.75 C 7.5 -1.113281 7.253906 -0.671875 6.765625 -0.421875 C 6.285156 -0.171875 5.703125 -0.0351562 5.015625 -0.015625 C 4.335938 -0.00390625 3.671875 -0.03125 3.015625 -0.09375 C 2.367188 -0.164062 1.863281 -0.21875 1.5 -0.25 C 1.164062 -0.25 0.914062 -0.316406 0.75 -0.453125 C 0.445312 -0.648438 0.253906 -1.03125 0.171875 -1.59375 C 0.0859375 -2.164062 0.046875 -2.800781 0.046875 -3.5 C 0.046875 -4.195312 0.0703125 -4.863281 0.125 -5.5 C 0.175781 -6.132812 0.203125 -6.601562 0.203125 -6.90625 C 0.265625 -8.070312 0.328125 -9.238281 0.390625 -10.40625 C 0.460938 -11.570312 0.5 -12.738281 0.5 -13.90625 C 0.5 -16.164062 0.5 -18.4375 0.5 -20.71875 C 0.5 -23.007812 0.5 -25.300781 0.5 -27.59375 C 0.5 -28.164062 0.628906 -28.523438 0.890625 -28.671875 C 1.160156 -28.828125 1.492188 -28.882812 1.890625 -28.84375 C 2.296875 -28.8125 2.695312 -28.8125 3.09375 -28.84375 C 3.800781 -28.945312 4.488281 -29 5.15625 -29 C 6.519531 -29 7.566406 -28.566406 8.296875 -27.703125 C 8.566406 -27.398438 8.898438 -27.25 9.296875 -27.25 C 9.429688 -27.25 9.550781 -27.265625 9.65625 -27.296875 C 10.082031 -27.328125 10.59375 -27.476562 11.1875 -27.75 C 11.789062 -28.019531 12.414062 -28.28125 13.0625 -28.53125 C 13.71875 -28.78125 14.328125 -28.945312 14.890625 -29.03125 C 15.460938 -29.113281 15.929688 -29.007812 16.296875 -28.71875 C 16.660156 -28.4375 16.84375 -27.863281 16.84375 -27 C 16.84375 -26.5625 16.832031 -26.117188 16.8125 -25.671875 C 16.800781 -25.222656 16.78125 -24.78125 16.75 -24.34375 C 16.71875 -24.113281 16.679688 -23.863281 16.640625 -23.59375 C 16.609375 -23.332031 16.507812 -23.101562 16.34375 -22.90625 C 16.144531 -22.53125 15.878906 -22.28125 15.546875 -22.15625 Z M 15.546875 -22.15625 "/></g></g></g><g fill="#000000" fill-opacity="1"><g transform="translate(213.893969, 90.801102)"><g><path d="M 20.09375 -2.09375 C 19.96875 -1.59375 19.738281 -1.160156 19.40625 -0.796875 C 18.863281 -0.203125 18.160156 0.0625 17.296875 0 C 16.429688 -0.0625 15.648438 -0.09375 14.953125 -0.09375 C 14.015625 -0.09375 13.257812 -0.132812 12.6875 -0.21875 C 12.125 -0.300781 11.648438 -0.519531 11.265625 -0.875 C 10.890625 -1.226562 10.507812 -1.800781 10.125 -2.59375 C 9.738281 -3.394531 9.25 -4.515625 8.65625 -5.953125 C 8.113281 -7.816406 7.414062 -9.679688 6.5625 -11.546875 C 5.71875 -13.410156 4.929688 -15.257812 4.203125 -17.09375 C 4.097656 -17.363281 3.867188 -17.898438 3.515625 -18.703125 C 3.171875 -19.503906 2.773438 -20.421875 2.328125 -21.453125 C 1.878906 -22.484375 1.453125 -23.503906 1.046875 -24.515625 C 0.648438 -25.535156 0.359375 -26.410156 0.171875 -27.140625 C -0.00390625 -27.878906 -0.0078125 -28.316406 0.15625 -28.453125 C 0.28125 -28.585938 0.4375 -28.660156 0.625 -28.671875 C 0.8125 -28.691406 0.988281 -28.703125 1.15625 -28.703125 C 2.082031 -28.671875 3.0625 -28.6875 4.09375 -28.75 C 5.132812 -28.8125 6.101562 -28.726562 7 -28.5 C 7.164062 -28.46875 7.390625 -28.304688 7.671875 -28.015625 C 7.953125 -27.734375 8.160156 -27.425781 8.296875 -27.09375 C 8.960938 -25.46875 9.628906 -23.8125 10.296875 -22.125 C 10.960938 -20.4375 11.628906 -18.710938 12.296875 -16.953125 C 12.398438 -16.648438 12.566406 -16.207031 12.796875 -15.625 C 13.035156 -15.039062 13.3125 -14.445312 13.625 -13.84375 C 13.9375 -13.25 14.269531 -12.757812 14.625 -12.375 C 14.976562 -11.988281 15.335938 -11.84375 15.703125 -11.9375 C 16.066406 -12.039062 16.414062 -12.507812 16.75 -13.34375 C 17.6875 -15.644531 18.601562 -17.945312 19.5 -20.25 C 20.394531 -22.550781 21.3125 -24.832031 22.25 -27.09375 C 22.351562 -27.300781 22.453125 -27.503906 22.546875 -27.703125 C 22.648438 -27.898438 22.769531 -28.082031 22.90625 -28.25 C 23.101562 -28.445312 23.5 -28.617188 24.09375 -28.765625 C 24.695312 -28.921875 25.375 -29.003906 26.125 -29.015625 C 26.875 -29.035156 27.582031 -28.992188 28.25 -28.890625 C 28.914062 -28.796875 29.429688 -28.609375 29.796875 -28.328125 C 30.160156 -28.046875 30.242188 -27.65625 30.046875 -27.15625 C 28.410156 -23.050781 26.773438 -18.941406 25.140625 -14.828125 C 23.515625 -10.710938 21.898438 -6.601562 20.296875 -2.5 C 20.234375 -2.300781 20.164062 -2.164062 20.09375 -2.09375 Z M 20.09375 -2.09375 "/></g></g></g><g fill="#000000" fill-opacity="1"><g transform="translate(244.142734, 90.801102)"><g><path d="M 0.046875 -14.5 C 0.015625 -16.363281 0.378906 -18.21875 1.140625 -20.0625 C 1.910156 -21.914062 2.976562 -23.546875 4.34375 -24.953125 C 5.644531 -26.285156 7.128906 -27.300781 8.796875 -28 C 10.460938 -28.695312 12.179688 -29.046875 13.953125 -29.046875 C 14.117188 -29.046875 14.289062 -29.046875 14.46875 -29.046875 C 14.65625 -29.046875 14.832031 -29.046875 15 -29.046875 C 15 -29.046875 15.003906 -29.046875 15.015625 -29.046875 C 15.035156 -29.046875 15.046875 -29.046875 15.046875 -29.046875 C 17.953125 -29.046875 20.507812 -28.445312 22.71875 -27.25 C 24.9375 -26.050781 26.675781 -24.382812 27.9375 -22.25 C 29.207031 -20.113281 29.84375 -17.644531 29.84375 -14.84375 C 29.84375 -10.476562 28.476562 -6.929688 25.75 -4.203125 C 24.414062 -2.867188 22.820312 -1.84375 20.96875 -1.125 C 19.125 -0.40625 17.117188 -0.046875 14.953125 -0.046875 C 12.878906 -0.046875 10.953125 -0.421875 9.171875 -1.171875 C 7.390625 -1.921875 5.820312 -2.953125 4.46875 -4.265625 C 3.125 -5.585938 2.054688 -7.125 1.265625 -8.875 C 0.484375 -10.625 0.078125 -12.5 0.046875 -14.5 Z M 14.796875 -23.09375 C 13.628906 -23.09375 12.492188 -22.71875 11.390625 -21.96875 C 10.296875 -21.21875 9.390625 -20.25 8.671875 -19.0625 C 7.953125 -17.882812 7.578125 -16.644531 7.546875 -15.34375 C 7.515625 -13.914062 7.75 -12.535156 8.25 -11.203125 C 8.75 -9.867188 9.515625 -8.75 10.546875 -7.84375 C 11.578125 -6.945312 12.863281 -6.414062 14.40625 -6.25 C 16.101562 -6.082031 17.535156 -6.347656 18.703125 -7.046875 C 19.867188 -7.742188 20.765625 -8.703125 21.390625 -9.921875 C 22.023438 -11.140625 22.375 -12.472656 22.4375 -13.921875 C 22.507812 -15.367188 22.296875 -16.757812 21.796875 -18.09375 C 21.296875 -19.425781 20.492188 -20.550781 19.390625 -21.46875 C 18.296875 -22.382812 16.898438 -22.925781 15.203125 -23.09375 C 15.128906 -23.09375 15.0625 -23.09375 15 -23.09375 C 14.9375 -23.09375 14.867188 -23.09375 14.796875 -23.09375 Z M 14.796875 -23.09375 "/></g></g></g></g></g></g></g></g></mask><clipPath id="11ecafdace"><path d="M 0 0 L 374.015625 0 L 374.015625 150 L 0 150 Z M 0 0 " clip-rule="nonzero"/></clipPath><clipPath id="6b752cf2e9"><rect x="0" width="375" y="0" height="150"/></clipPath><clipPath id="a53ae9d76c"><rect x="0" width="375" y="0" height="150"/></clipPath><clipPath id="d5781fb771"><rect x="0" width="375" y="0" height="150"/></clipPath><clipPath id="bf717b7cce"><path d="M 274.804688 80.714844 L 284.285156 80.714844 L 284.285156 90.195312 L 274.804688 90.195312 Z M 274.804688 80.714844 " clip-rule="nonzero"/></clipPath><clipPath id="468c167038"><path d="M 279.542969 80.714844 C 276.925781 80.714844 274.804688 82.835938 274.804688 85.453125 C 274.804688 88.070312 276.925781 90.195312 279.542969 90.195312 C 282.160156 90.195312 284.285156 88.070312 284.285156 85.453125 C 284.285156 82.835938 282.160156 80.714844 279.542969 80.714844 Z M 279.542969 80.714844 " clip-rule="nonzero"/></clipPath><clipPath id="54ba856f81"><path d="M 0.804688 0.714844 L 10.285156 0.714844 L 10.285156 10.195312 L 0.804688 10.195312 Z M 0.804688 0.714844 " clip-rule="nonzero"/></clipPath><clipPath id="2d6ce9f164"><path d="M 5.542969 0.714844 C 2.925781 0.714844 0.804688 2.835938 0.804688 5.453125 C 0.804688 8.070312 2.925781 10.195312 5.542969 10.195312 C 8.160156 10.195312 10.285156 8.070312 10.285156 5.453125 C 10.285156 2.835938 8.160156 0.714844 5.542969 0.714844 Z M 5.542969 0.714844 " clip-rule="nonzero"/></clipPath><clipPath id="31eb7d9c02"><rect x="0" width="11" y="0" height="11"/></clipPath></defs><g transform="matrix(1, 0, 0, 1, 0, -0.000000000000007527)"><g clip-path="url(#d5781fb771)"><g transform="matrix(1, 0, 0, 1, 0, -0.000000000000007527)"><g clip-path="url(#a53ae9d76c)"><g mask="url(#d4ae326a68)"><g transform="matrix(1, 0, 0, 1, 0, -0.000000000000007527)"><g clip-path="url(#6b752cf2e9)"><g clip-path="url(#11ecafdace)"><path fill="url(#4947de9a4a)" d="M 0 0 L 0 150 L 374.015625 150 L 374.015625 0 Z M 0 0 " fill-rule="nonzero"/></g></g></g></g></g></g></g></g><g clip-path="url(#bf717b7cce)"><g clip-path="url(#468c167038)"><g transform="matrix(1, 0, 0, 1, 274, 80)"><g clip-path="url(#31eb7d9c02)"><g clip-path="url(#54ba856f81)"><g clip-path="url(#2d6ce9f164)"><path fill="#1b1b1b" d="M 0.804688 0.714844 L 10.285156 0.714844 L 10.285156 10.195312 L 0.804688 10.195312 Z M 0.804688 0.714844 " fill-opacity="1" fill-rule="nonzero"/></g></g></g></g></g></g></svg>